<mxfile host="Electron" modified="2023-11-11T02:53:42.103Z" agent="Mozilla/5.0 (Windows NT 10.0; Win64; x64) AppleWebKit/537.36 (KHTML, like Gecko) draw.io/22.0.2 Chrome/114.0.5735.289 Electron/25.8.4 Safari/537.36" etag="1-94BZb2MrNKFdKexM7e" version="22.0.2" type="device">
  <diagram id="5A3foilHxnzcEwqRGsPn" name="Page-1">
    <mxGraphModel dx="1195" dy="697" grid="1" gridSize="10" guides="1" tooltips="1" connect="1" arrows="1" fold="1" page="1" pageScale="1" pageWidth="850" pageHeight="1100" math="0" shadow="0">
      <root>
        <mxCell id="0" />
        <mxCell id="1" parent="0" />
        <mxCell id="HuDzA03zV6hxK3HbArgA-12" style="edgeStyle=orthogonalEdgeStyle;rounded=0;orthogonalLoop=1;jettySize=auto;html=1;exitX=1;exitY=0.5;exitDx=0;exitDy=0;entryX=0.5;entryY=0;entryDx=0;entryDy=0;startArrow=none;startFill=0;endArrow=classic;endFill=1;" parent="1" source="HuDzA03zV6hxK3HbArgA-1" target="HuDzA03zV6hxK3HbArgA-5" edge="1">
          <mxGeometry relative="1" as="geometry">
            <mxPoint x="650" y="493" as="targetPoint" />
          </mxGeometry>
        </mxCell>
        <mxCell id="HuDzA03zV6hxK3HbArgA-1" value="&lt;br&gt;&lt;br&gt;Wr&amp;nbsp; &amp;nbsp; &amp;nbsp; &amp;nbsp; &amp;nbsp; &amp;nbsp; &amp;nbsp; &amp;nbsp; &amp;nbsp; &amp;nbsp; &amp;nbsp; &amp;nbsp; &amp;nbsp;Rd&lt;br&gt;&lt;b&gt;Hypervector&lt;/b&gt;&lt;br&gt;&lt;b&gt;Memory&lt;/b&gt;" style="rounded=0;whiteSpace=wrap;html=1;fillColor=#f5f5f5;strokeColor=#666666;fontColor=#333333;" parent="1" vertex="1">
          <mxGeometry x="430" y="350" width="120" height="80" as="geometry" />
        </mxCell>
        <mxCell id="6BiD_tTJus7x4-J8WxFA-3" style="edgeStyle=orthogonalEdgeStyle;rounded=0;orthogonalLoop=1;jettySize=auto;html=1;exitX=0;exitY=0.5;exitDx=0;exitDy=0;entryX=1;entryY=0;entryDx=0;entryDy=0;" edge="1" parent="1" source="HuDzA03zV6hxK3HbArgA-3" target="6BiD_tTJus7x4-J8WxFA-1">
          <mxGeometry relative="1" as="geometry" />
        </mxCell>
        <mxCell id="HuDzA03zV6hxK3HbArgA-3" value="Single-Dimenison Similarity&lt;br&gt;Metric" style="rounded=1;whiteSpace=wrap;html=1;fillColor=#fff2cc;strokeColor=#d6b656;" parent="1" vertex="1">
          <mxGeometry x="470" y="460" width="70" height="60" as="geometry" />
        </mxCell>
        <mxCell id="HuDzA03zV6hxK3HbArgA-20" style="edgeStyle=orthogonalEdgeStyle;rounded=0;orthogonalLoop=1;jettySize=auto;html=1;exitX=0.75;exitY=1;exitDx=0;exitDy=0;entryX=1;entryY=0.25;entryDx=0;entryDy=0;startArrow=none;startFill=0;endArrow=classic;endFill=1;" parent="1" source="HuDzA03zV6hxK3HbArgA-5" target="HuDzA03zV6hxK3HbArgA-16" edge="1">
          <mxGeometry relative="1" as="geometry" />
        </mxCell>
        <mxCell id="HuDzA03zV6hxK3HbArgA-22" style="edgeStyle=orthogonalEdgeStyle;rounded=0;orthogonalLoop=1;jettySize=auto;html=1;exitX=0.25;exitY=1;exitDx=0;exitDy=0;entryX=1;entryY=0.25;entryDx=0;entryDy=0;startArrow=none;startFill=0;endArrow=classic;endFill=1;" parent="1" source="HuDzA03zV6hxK3HbArgA-5" target="HuDzA03zV6hxK3HbArgA-3" edge="1">
          <mxGeometry relative="1" as="geometry" />
        </mxCell>
        <mxCell id="HuDzA03zV6hxK3HbArgA-5" value="" style="shape=trapezoid;perimeter=trapezoidPerimeter;whiteSpace=wrap;html=1;fixedSize=1;rotation=0;size=20;fillColor=#f5f5f5;strokeColor=#666666;fontColor=#333333;" parent="1" vertex="1">
          <mxGeometry x="590" y="433" width="80" height="20" as="geometry" />
        </mxCell>
        <mxCell id="HuDzA03zV6hxK3HbArgA-21" style="edgeStyle=orthogonalEdgeStyle;rounded=0;orthogonalLoop=1;jettySize=auto;html=1;exitX=0;exitY=0.25;exitDx=0;exitDy=0;entryX=1;entryY=0.75;entryDx=0;entryDy=0;startArrow=none;startFill=0;endArrow=classic;endFill=1;" parent="1" source="HuDzA03zV6hxK3HbArgA-16" target="HuDzA03zV6hxK3HbArgA-3" edge="1">
          <mxGeometry relative="1" as="geometry" />
        </mxCell>
        <mxCell id="HuDzA03zV6hxK3HbArgA-16" value="&lt;div style=&quot;text-align: left&quot;&gt;&lt;b&gt;&amp;nbsp; A&lt;/b&gt;&lt;/div&gt;&amp;nbsp; &amp;nbsp; elem" style="rounded=0;whiteSpace=wrap;html=1;fillColor=#fff2cc;strokeColor=#d6b656;" parent="1" vertex="1">
          <mxGeometry x="560" y="483" width="60" height="85" as="geometry" />
        </mxCell>
        <mxCell id="HuDzA03zV6hxK3HbArgA-24" value="B wire" style="text;html=1;align=center;verticalAlign=middle;resizable=0;points=[];autosize=1;" parent="1" vertex="1">
          <mxGeometry x="540" y="453" width="50" height="20" as="geometry" />
        </mxCell>
        <mxCell id="6BiD_tTJus7x4-J8WxFA-4" style="edgeStyle=orthogonalEdgeStyle;rounded=0;orthogonalLoop=1;jettySize=auto;html=1;exitX=0;exitY=0.5;exitDx=0;exitDy=0;entryX=1;entryY=0.25;entryDx=0;entryDy=0;" edge="1" parent="1" source="6BiD_tTJus7x4-J8WxFA-1" target="6BiD_tTJus7x4-J8WxFA-2">
          <mxGeometry relative="1" as="geometry" />
        </mxCell>
        <mxCell id="6BiD_tTJus7x4-J8WxFA-1" value="&lt;b&gt;&lt;font style=&quot;font-size: 15px;&quot;&gt;+&lt;/font&gt;&lt;/b&gt;" style="ellipse;whiteSpace=wrap;html=1;aspect=fixed;" vertex="1" parent="1">
          <mxGeometry x="395" y="485" width="30" height="30" as="geometry" />
        </mxCell>
        <mxCell id="6BiD_tTJus7x4-J8WxFA-5" style="edgeStyle=orthogonalEdgeStyle;rounded=0;orthogonalLoop=1;jettySize=auto;html=1;exitX=0;exitY=0.25;exitDx=0;exitDy=0;entryX=1;entryY=1;entryDx=0;entryDy=0;" edge="1" parent="1" source="6BiD_tTJus7x4-J8WxFA-2" target="6BiD_tTJus7x4-J8WxFA-1">
          <mxGeometry relative="1" as="geometry">
            <Array as="points">
              <mxPoint x="290" y="499" />
              <mxPoint x="290" y="590" />
              <mxPoint x="445" y="590" />
              <mxPoint x="445" y="511" />
            </Array>
          </mxGeometry>
        </mxCell>
        <mxCell id="6BiD_tTJus7x4-J8WxFA-9" style="edgeStyle=orthogonalEdgeStyle;rounded=0;orthogonalLoop=1;jettySize=auto;html=1;exitX=0;exitY=0.25;exitDx=0;exitDy=0;entryX=0;entryY=0.5;entryDx=0;entryDy=0;" edge="1" parent="1" source="6BiD_tTJus7x4-J8WxFA-2" target="6BiD_tTJus7x4-J8WxFA-7">
          <mxGeometry relative="1" as="geometry" />
        </mxCell>
        <mxCell id="6BiD_tTJus7x4-J8WxFA-2" value="Similarity&lt;br&gt;Accum.&lt;br&gt;&lt;div style=&quot;text-align: left&quot;&gt;&lt;/div&gt;" style="rounded=0;whiteSpace=wrap;html=1;fillColor=#fff2cc;strokeColor=#d6b656;" vertex="1" parent="1">
          <mxGeometry x="310" y="478" width="60" height="85" as="geometry" />
        </mxCell>
        <mxCell id="6BiD_tTJus7x4-J8WxFA-8" style="edgeStyle=orthogonalEdgeStyle;rounded=0;orthogonalLoop=1;jettySize=auto;html=1;exitX=1;exitY=0.5;exitDx=0;exitDy=0;entryX=0;entryY=0.5;entryDx=0;entryDy=0;" edge="1" parent="1" source="6BiD_tTJus7x4-J8WxFA-7" target="HuDzA03zV6hxK3HbArgA-1">
          <mxGeometry relative="1" as="geometry" />
        </mxCell>
        <mxCell id="6BiD_tTJus7x4-J8WxFA-7" value="Final Formatting" style="rounded=1;whiteSpace=wrap;html=1;fillColor=#fff2cc;strokeColor=#d6b656;" vertex="1" parent="1">
          <mxGeometry x="310" y="360" width="70" height="60" as="geometry" />
        </mxCell>
      </root>
    </mxGraphModel>
  </diagram>
</mxfile>
